<?xml version="1.0" encoding="UTF-8" standalone="no"?>
<!-- Created with Inkscape (http://www.inkscape.org/) -->

<svg
   version="1.1"
   id="svg1"
   width="789.17334"
   height="330.84"
   viewBox="0 0 789.17334 330.84"
   sodipodi:docname="MeBee Logo.eps"
   xmlns:inkscape="http://www.inkscape.org/namespaces/inkscape"
   xmlns:sodipodi="http://sodipodi.sourceforge.net/DTD/sodipodi-0.dtd"
   xmlns="http://www.w3.org/2000/svg"
   xmlns:svg="http://www.w3.org/2000/svg">
  <defs
     id="defs1" />
  <sodipodi:namedview
     id="namedview1"
     pagecolor="#ffffff"
     bordercolor="#000000"
     borderopacity="0.25"
     inkscape:showpageshadow="2"
     inkscape:pageopacity="0.0"
     inkscape:pagecheckerboard="0"
     inkscape:deskcolor="#d1d1d1">
    <inkscape:page
       x="0"
       y="0"
       inkscape:label="1"
       id="page1"
       width="789.17334"
       height="330.84"
       margin="0"
       bleed="0" />
  </sodipodi:namedview>
  <g
     id="g1"
     inkscape:groupmode="layer"
     inkscape:label="1">
    <g
       id="group-R5">
      <path
         id="path2"
         d="m 1380.77,908.738 v 399.542 l -164.36,-296.03 h -64.47 L 988.492,1309.19 V 908.738 H 876.801 V 1513.5 h 111.691 l 196.128,-350.51 196.15,350.51 h 111.69 V 908.738 h -111.69"
         style="fill:#3e4c6e;fill-opacity:1;fill-rule:nonzero;stroke:none"
         transform="matrix(0.13333333,0,0,-0.13333333,0,330.84)" />
      <path
         id="path3"
         d="M 1659.55,908.738 V 1513.5 h 434.04 v -99.88 h -317.81 v -142.57 h 298.74 v -99.88 h -298.74 v -162.54 h 317.81 v -99.892 h -434.04"
         style="fill:#3e4c6e;fill-opacity:1;fill-rule:nonzero;stroke:none"
         transform="matrix(0.13333333,0,0,-0.13333333,0,330.84)" />
      <path
         id="path4"
         d="m 3707.13,1172.98 h -162.54 v -171.62 h 162.54 c 62.66,0 95.35,33.6 95.35,85.36 0,49.94 -29.97,86.26 -95.35,86.26 z m -21.79,248.81 h -140.75 v -161.64 h 139.84 c 61.75,0 98.08,30.88 98.08,82.64 0,51.75 -34.52,79 -97.17,79 z m 54.48,-513.052 H 3432 V 1513.5 h 278.77 c 118.95,0 187.06,-61.75 187.06,-156.18 0,-48.13 -24.52,-105.34 -94.45,-130.76 80.82,-24.52 115.33,-86.27 115.33,-145.29 0,-87.168 -69.02,-172.532 -178.89,-172.532"
         style="fill:#3e4c6e;fill-opacity:1;fill-rule:nonzero;stroke:none"
         transform="matrix(0.13333333,0,0,-0.13333333,0,330.84)" />
      <path
         id="path5"
         d="M 4034.04,908.738 V 1513.5 h 434.04 v -99.88 h -317.81 v -142.57 h 298.74 v -99.88 h -298.74 v -162.54 h 317.81 v -99.892 h -434.04"
         style="fill:#3e4c6e;fill-opacity:1;fill-rule:nonzero;stroke:none"
         transform="matrix(0.13333333,0,0,-0.13333333,0,330.84)" />
      <path
         id="path6"
         d="M 4607.92,908.738 V 1513.5 h 434.05 v -99.88 h -317.81 v -142.57 h 298.74 v -99.88 h -298.74 v -162.54 h 317.81 v -99.892 h -434.05"
         style="fill:#3e4c6e;fill-opacity:1;fill-rule:nonzero;stroke:none"
         transform="matrix(0.13333333,0,0,-0.13333333,0,330.84)" />
      <path
         id="path7"
         d="m 2906.44,1680.58 c 101.14,-76.88 77.91,-247.42 -101.15,-413.09 l -46.82,-43.91 c -68.24,-63.42 -131.69,-142.83 -162.34,-231.74 -25.22,-73.102 -27.51,-154.649 13.9,-222.488 14.08,-23.063 32.32,-42.961 53.8,-59.27 85.22,-64.762 195.73,-65.172 281.46,-1.133 22.1,16.52 40.85,36.813 55.25,60.371 41.41,67.871 39.13,149.418 13.91,222.52 -24.24,70.29 -68.98,134.6 -120.34,189.83 l -48.57,-45.57 c 142.26,-153.018 153.99,-303.452 59.88,-373.799 -61.93,-46.281 -139.76,-45.981 -201.28,0.781 -101.15,76.879 -77.92,247.418 101.15,413.088 l 46.81,43.91 c 68.24,63.42 131.66,142.82 162.35,231.7 25.22,73.14 27.5,154.68 -13.91,222.56 -14.08,23.02 -32.32,42.96 -53.79,59.23 -85.23,64.76 -195.74,65.18 -281.47,1.13 -22.1,-16.51 -40.84,-36.83 -55.22,-60.36 -41.44,-67.88 -39.15,-149.42 -13.93,-222.56 24.24,-70.25 68.97,-134.57 120.34,-189.79 l 48.56,45.57 c -142.26,153.01 -153.99,303.45 -59.88,373.79 61.93,46.28 139.76,45.99 201.29,-0.77"
         style="fill:#3e4c6e;fill-opacity:1;fill-rule:evenodd;stroke:none"
         transform="matrix(0.13333333,0,0,-0.13333333,0,330.84)" />
      <path
         id="path8"
         d="m 3061.26,1016.65 c 57.6,6.24 107.42,43.07 136.56,96.13 29.23,-34.11 43.05,-54.01 41.32,-59.77 -54.6,-138.49 146.66,-126.131 -34.99,72.24 28.13,60.19 28.16,132.97 0,193.09 181.65,198.44 -19.61,210.8 34.99,72.25 1.73,-5.68 -12.06,-25.61 -41.32,-59.71 -29.14,53.05 -78.96,89.95 -136.56,96.16 -29.44,-76.85 -80.74,-146.19 -138.66,-204.97 l 16.07,-17.26 c 50.85,-54.66 95.71,-118.06 122.59,-188.16"
         style="fill:#3e4c6e;fill-opacity:1;fill-rule:evenodd;stroke:none"
         transform="matrix(0.13333333,0,0,-0.13333333,0,330.84)" />
      <path
         id="path9"
         d="m 2358.27,1227.32 c 0,-34.87 4.9,-68.68 14.11,-100.61 -34.58,26.47 -65.26,57.81 -90.42,95.03 v 0.12 c 24.23,35.91 53.64,66.36 86.71,92.2 -6.81,-27.8 -10.4,-56.82 -10.4,-86.74 z m 201.94,182.81 c -31.31,-53.67 -49.28,-116.15 -49.28,-182.81 0,-72.33 21.18,-139.73 57.63,-196.41 -33.27,10.1 -65.86,22.1 -96.99,36.59 -23.68,48.25 -36.96,102.49 -36.96,159.82 0,51.84 10.85,101.12 30.39,145.74 30.54,14.62 62.5,26.83 95.21,37.07 z m 27.06,-182.81 c 0,40.82 6.75,80.09 19.16,116.69 l 35.15,65.8 c -4.37,10.16 -8.38,20.47 -12.01,30.92 -5.05,14.62 -9.2,29.53 -12.44,44.56 l -0.86,1.66 -59.3,-14.7 c -165.22,-48.84 -280.45,-132.31 -345.74,-250.45 65.29,-118.11 180.52,-201.59 345.74,-250.39 l 59.3,-14.711 0.86,1.672 c 3.24,15.027 7.39,29.938 12.44,44.549 3.12,9 6.51,17.89 10.22,26.68 l -31.01,74.38 c -13.9,38.5 -21.51,80.06 -21.51,123.34 v 0"
         style="fill:#3e4c6e;fill-opacity:1;fill-rule:evenodd;stroke:none"
         transform="matrix(0.13333333,0,0,-0.13333333,0,330.84)" />
    </g>
  </g>
</svg>
